OFF
106 208 296
8.0 4.440892098500626e-16 2.0
8.586 3.1397107136399425e-16 3.4139999999999997
10.0 0.0 4.0
11.414 -3.1397107136399425e-16 3.4139999999999997
12.0 -4.440892098500626e-16 2.0
11.414 -3.1397107136399425e-16 0.5860000000000001
10.0 0.0 0.0
8.586 3.1397107136399425e-16 0.5860000000000001
7.364924838107062 6.330782185579224 2.0
7.933389192744774 6.4730645720728806 3.4139999999999997
9.305076219123142 6.816387600233341 4.0
10.676763245501512 7.1597106283938015 3.4139999999999997
11.245227600139222 7.301993014887458 2.0
10.676763245501512 7.1597106283938015 0.5860000000000003
9.305076219123142 6.816387600233341 2.220446049250313e-16
7.933389192744774 6.4730645720728806 0.5860000000000003
6.910449694103838 8.016683453204793 2.0
7.029536319531709 8.590455512165668 3.4139999999999997
7.316888688738209 9.974949866040545 4.0
7.6042410579447095 11.35944421991542 3.4139999999999997
7.72332768337258 11.933216278876296 2.0
7.6042410579447095 11.35944421991542 0.5860000000000003
7.316888688738209 9.974949866040545 2.220446049250313e-16
7.029536319531709 8.590455512165668 0.5860000000000003
2.6872859908191575 6.6140840344323255 2.0
3.1632583897292363 6.955911879225264 3.4139999999999997
4.311765167986662 7.780731968879212 4.0
5.460271946244088 8.60555205853316 3.4139999999999997
5.936244345154167 8.947379903326098 2.0
5.460271946244088 8.60555205853316 0.5860000000000001
4.311765167986662 7.780731968879212 0.0
3.1632583897292363 6.955911879225264 0.5860000000000001
-1.078766981157901 0.5113626061549641 2.0
-0.5554282547922665 0.7750149861669706 3.4139999999999997
0.7073720166770291 1.4112000805986722 4.0
1.9701722881463248 2.0473851750303735 3.4139999999999997
2.4935110145119594 2.3110375550423803 2.0
1.9701722881463248 2.0473851750303735 0.5860000000000001
0.7073720166770291 1.4112000805986722 0.0
-0.5554282547922665 0.7750149861669706 0.5860000000000001
-4.7243737007750575 -6.720812364334341 2.0
-4.217765379583418 -6.426289005499446 3.4139999999999997
-2.9953350618957413 -5.715613187423437 4.0
-1.7729047442080645 -5.004937369347428 3.4139999999999997
-1.2662964230164246 -4.710414010512533 2.0
-1.7729047442080645 -5.004937369347428 0.5860000000000003
-2.9953350618957413 -5.715613187423437 2.220446049250313e-16
-4.217765379583418 -6.426289005499446 0.5860000000000003
-7.2345389025366424 -11.533757050968985 2.0
-6.955367718671032 -11.018529479793806 3.4139999999999997
-6.281736227227391 -9.77530117665097 4.0
-5.60810473578375 -8.532072873508135 3.4139999999999997
-5.32893355191814 -8.016845302332955 2.0
-5.60810473578375 -8.532072873508135 0.5860000000000001
-6.281736227227391 -9.77530117665097 0.0
-6.955367718671032 -11.018529479793806 0.5860000000000001
-10.496524127370815 -9.45811968356996 2.0
-9.9686985997465 -9.203568682023876 3.4139999999999997
-8.695071814659844 -8.58934493426592 4.0
-7.421445029573188 -7.975121186507964 3.4139999999999997
-6.893619501948874 -7.720570184961881 2.0
-7.421445029573188 -7.975121186507964 0.5860000000000001
-8.695071814659844 -8.58934493426592 0.0
-9.9686985997465 -9.203568682023876 0.5860000000000001
-11.894546406140764 -2.9407336658029344 2.0
-11.310122324180826 -2.8977861114455274 3.4139999999999997
-9.899924966004454 -2.7941549819892586 4.0
-8.489727607828081 -2.6905238525329898 3.4139999999999997
-7.905303525868143 -2.647576298175583 2.0
-8.489727607828081 -2.6905238525329898 0.5860000000000001
-9.899924966004454 -2.7941549819892586 0.0
-11.310122324180826 -2.8977861114455274 0.5860000000000001
-11.712276504423231 4.757301575604207 2.0
-11.131129450347002 4.682041350129384 3.4139999999999997
-9.728839459794465 4.500440737806176 4.0
-8.326549469241927 4.318840125482969 3.4139999999999997
-7.745402415165699 4.243579900008146 2.0
-8.326549469241927 4.318840125482969 0.5860000000000001
-9.728839459794465 4.500440737806176 0.0
-11.131129450347002 4.682041350129384 0.5860000000000001
-9.74876286496318 10.652253098481028 2.0
-9.29661426253388 10.279482872576072 3.4139999999999997
-8.205593573395607 9.379999767747389 4.0
-7.114572884257333 8.480516662918706 3.4139999999999997
-6.662424281828034 8.10774643701375 2.0
-7.114572884257333 8.480516662918706 0.5860000000000001
-8.205593573395607 9.379999767747389 0.0
-9.29661426253388 10.279482872576072 0.5860000000000001
-6.901435954593132 10.69289216737429 2.0
-6.503090532520125 10.26310509833489 3.4139999999999997
-5.541895264924167 9.226042102393402 4.0
-4.580699997328209 8.188979106451914 3.4139999999999997
-4.182354575255203 7.759192037412514 2.0
-4.580699997328209 8.188979106451914 0.5860000000000001
-5.541895264924167 9.226042102393402 0.0
-6.503090532520125 10.26310509833489 0.5860000000000001
-3.8703865946531257 5.066618842014304 2.0
-3.3539950147519444 4.78960668306246 3.4139999999999997
-2.107957994307797 4.121184852417566 4.0
-0.8619209738636493 3.452763021772673 3.4139999999999997
-0.34552939396246773 3.175750862820829 2.0
-0.8619209738636493 3.452763021772673 0.5860000000000001
-2.107957994307797 4.121184852417566 0.0
-3.3539950147519444 4.78960668306246 0.5860000000000001
10.0 -6.162975822039155e-33 2.0
-2.107957994307797 4.121184852417566 2.0
3 0 1 9
3 0 9 8
3 1 2 10
3 1 10 9
3 2 3 11
3 2 11 10
3 3 4 12
3 3 12 11
3 4 5 13
3 4 13 12
3 5 6 14
3 5 14 13
3 6 7 15
3 6 15 14
3 7 0 8
3 7 8 15
3 8 9 17
3 8 17 16
3 9 10 18
3 9 18 17
3 10 11 19
3 10 19 18
3 11 12 20
3 11 20 19
3 12 13 21
3 12 21 20
3 13 14 22
3 13 22 21
3 14 15 23
3 14 23 22
3 15 8 16
3 15 16 23
3 16 17 25
3 16 25 24
3 17 18 26
3 17 26 25
3 18 19 27
3 18 27 26
3 19 20 28
3 19 28 27
3 20 21 29
3 20 29 28
3 21 22 30
3 21 30 29
3 22 23 31
3 22 31 30
3 23 16 24
3 23 24 31
3 24 25 33
3 24 33 32
3 25 26 34
3 25 34 33
3 26 27 35
3 26 35 34
3 27 28 36
3 27 36 35
3 28 29 37
3 28 37 36
3 29 30 38
3 29 38 37
3 30 31 39
3 30 39 38
3 31 24 32
3 31 32 39
3 32 33 41
3 32 41 40
3 33 34 42
3 33 42 41
3 34 35 43
3 34 43 42
3 35 36 44
3 35 44 43
3 36 37 45
3 36 45 44
3 37 38 46
3 37 46 45
3 38 39 47
3 38 47 46
3 39 32 40
3 39 40 47
3 40 41 49
3 40 49 48
3 41 42 50
3 41 50 49
3 42 43 51
3 42 51 50
3 43 44 52
3 43 52 51
3 44 45 53
3 44 53 52
3 45 46 54
3 45 54 53
3 46 47 55
3 46 55 54
3 47 40 48
3 47 48 55
3 48 49 57
3 48 57 56
3 49 50 58
3 49 58 57
3 50 51 59
3 50 59 58
3 51 52 60
3 51 60 59
3 52 53 61
3 52 61 60
3 53 54 62
3 53 62 61
3 54 55 63
3 54 63 62
3 55 48 56
3 55 56 63
3 56 57 65
3 56 65 64
3 57 58 66
3 57 66 65
3 58 59 67
3 58 67 66
3 59 60 68
3 59 68 67
3 60 61 69
3 60 69 68
3 61 62 70
3 61 70 69
3 62 63 71
3 62 71 70
3 63 56 64
3 63 64 71
3 64 65 73
3 64 73 72
3 65 66 74
3 65 74 73
3 66 67 75
3 66 75 74
3 67 68 76
3 67 76 75
3 68 69 77
3 68 77 76
3 69 70 78
3 69 78 77
3 70 71 79
3 70 79 78
3 71 64 72
3 71 72 79
3 72 73 81
3 72 81 80
3 73 74 82
3 73 82 81
3 74 75 83
3 74 83 82
3 75 76 84
3 75 84 83
3 76 77 85
3 76 85 84
3 77 78 86
3 77 86 85
3 78 79 87
3 78 87 86
3 79 72 80
3 79 80 87
3 80 81 89
3 80 89 88
3 81 82 90
3 81 90 89
3 82 83 91
3 82 91 90
3 83 84 92
3 83 92 91
3 84 85 93
3 84 93 92
3 85 86 94
3 85 94 93
3 86 87 95
3 86 95 94
3 87 80 88
3 87 88 95
3 88 89 97
3 88 97 96
3 89 90 98
3 89 98 97
3 90 91 99
3 90 99 98
3 91 92 100
3 91 100 99
3 92 93 101
3 92 101 100
3 93 94 102
3 93 102 101
3 94 95 103
3 94 103 102
3 95 88 96
3 95 96 103
3 104 0 1
3 104 1 2
3 104 2 3
3 104 3 4
3 104 4 5
3 104 5 6
3 104 6 7
3 104 7 0
3 105 103 102
3 105 102 101
3 105 101 100
3 105 100 99
3 105 99 98
3 105 98 97
3 105 97 96
3 105 96 103
